HIERARCHY
ROOT SpineBase
{
  OFFSET 0.000000 0.000000 0.000000
  CHANNELS 6 Xposition Yposition Zposition Zrotation Xrotation Yrotation
  JOINT SpineMid
  {
    OFFSET 0.000000 31.486391 0.000000
    CHANNELS 3 Zrotation Xrotation Yrotation
    JOINT SpineShoulder
    {
      OFFSET 0.070614 23.346690 -0.785382
      CHANNELS 3 Zrotation Xrotation Yrotation
      JOINT Neck
      {
        OFFSET 0.057454 7.718125 -0.590098
        CHANNELS 3 Zrotation Xrotation Yrotation
        JOINT Head
        {
          OFFSET -5.486190 14.087818 -0.028347
          CHANNELS 3 Zrotation Xrotation Yrotation
          End Site
          {
            OFFSET 0 0 0
          }
        }
      }
      JOINT ShoulderLeft
      {
        OFFSET -17.618495 -4.619659 9.718030
        CHANNELS 3 Zrotation Xrotation Yrotation
        JOINT ElbowLeft
        {
          OFFSET 0.307842 -30.707968 1.196802
          CHANNELS 3 Zrotation Xrotation Yrotation
          JOINT WristLeft
          {
            OFFSET 0.129992 -23.547754 -5.580382
            CHANNELS 3 Zrotation Xrotation Yrotation
            JOINT HandLeft
            {
              OFFSET 0.595758 -5.267777 -1.473795
              CHANNELS 3 Zrotation Xrotation Yrotation
              JOINT HandTipLeft
              {
                OFFSET 1.573863 -8.279855 -1.837704
                CHANNELS 3 Zrotation Xrotation Yrotation
                End Site
                {
                  OFFSET 0 0 0
                }
              }
              JOINT ThumbLeft
              {
                OFFSET 3.973299 2.349669 -4.234486
                CHANNELS 3 Zrotation Xrotation Yrotation
                End Site
                {
                  OFFSET 0 0 0
                }
              }
            }
          }
        }
      }
      JOINT ShoulderRight
      {
        OFFSET 13.855076 -3.362807 -10.154614
        CHANNELS 3 Zrotation Xrotation Yrotation
        JOINT ElbowRight
        {
          OFFSET 8.267065 -26.563712 -1.737324
          CHANNELS 3 Zrotation Xrotation Yrotation
          JOINT WristRight
          {
            OFFSET -1.597147 -23.090218 -5.159537
            CHANNELS 3 Zrotation Xrotation Yrotation
            JOINT HandRight
            {
              OFFSET -2.071531 -6.908756 -0.529285
              CHANNELS 3 Zrotation Xrotation Yrotation
              JOINT HandTipRight
              {
                OFFSET -0.503874 -6.816238 -0.061680
                CHANNELS 3 Zrotation Xrotation Yrotation
                End Site
                {
                  OFFSET 0 0 0
                }
              }
              JOINT ThumbRight
              {
                OFFSET -2.326568 1.165989 0.284942
                CHANNELS 3 Zrotation Xrotation Yrotation
                End Site
                {
                  OFFSET 0 0 0
                }
              }
            }
          }
        }
      }
    }
  }
  JOINT HipLeft
  {
    OFFSET -6.317597 0.001738 0.608094
    CHANNELS 3 Zrotation Xrotation Yrotation
    JOINT KneeLeft
    {
      OFFSET 3.961958 -35.116386 3.198182
      CHANNELS 3 Zrotation Xrotation Yrotation
      JOINT AnkleLeft
      {
        OFFSET 7.489011 -37.191418 6.863834
        CHANNELS 3 Zrotation Xrotation Yrotation
        JOINT FootLeft
        {
          OFFSET -0.400255 -5.996241 -5.350466
          CHANNELS 3 Zrotation Xrotation Yrotation
          End Site
          {
            OFFSET 0 0 0
          }
        }
      }
    }
  }
  JOINT HipRight
  {
    OFFSET 7.067989 1.653190 -7.830649
    CHANNELS 3 Zrotation Xrotation Yrotation
    JOINT KneeRight
    {
      OFFSET 9.002533 -31.654881 0.867780
      CHANNELS 3 Zrotation Xrotation Yrotation
      JOINT AnkleRight
      {
        OFFSET 4.466310 -38.612934 7.674079
        CHANNELS 3 Zrotation Xrotation Yrotation
        JOINT FootRight
        {
          OFFSET -1.090460 -7.546908 -3.978990
          CHANNELS 3 Zrotation Xrotation Yrotation
          End Site
          {
            OFFSET 0 0 0
          }
        }
      }
    }
  }
}
MOTION
Frames: 12
Frame Time: 0.033333
-35.665830 80.142387 340.191687 -0.000000 0.000000 32.228769 -0.000000 0.000000 -32.228769 -0.000000 0.000000 0.000000 -0.000000 0.000000 0.000000 0.000000 0.000000 0.000000 -0.000000 0.000000 0.000000 -0.000000 0.000000 0.000000 -0.000000 0.000000 0.000000 -0.000000 0.000000 0.000000 0.000000 0.000000 0.000000 0.000000 0.000000 0.000000 -0.000000 0.000000 0.000000 -0.000000 0.000000 0.000000 -0.000000 0.000000 0.000000 -0.000000 0.000000 0.000000 0.000000 0.000000 0.000000 0.000000 0.000000 0.000000 -0.000000 0.000000 -32.228769 -0.000000 0.000000 0.000000 -0.000000 0.000000 0.000000 0.000000 0.000000 0.000000 -0.000000 0.000000 -32.228769 -0.000000 0.000000 0.000000 -0.000000 0.000000 0.000000 0.000000 0.000000 0.000000
-35.664228 80.147332 340.202033 -0.005456 0.052681 32.200322 -0.023456 -0.047486 -32.200329 -0.000000 0.000000 0.000000 -0.000000 0.000000 0.000000 0.000000 0.000000 0.000000 -0.000000 0.000000 0.000000 -0.000000 0.000000 0.000000 0.270145 -0.799015 -0.164339 0.361855 -0.499912 -0.221171 0.000000 0.000000 0.000000 0.000000 0.000000 0.000000 -0.000000 0.000000 0.000000 -0.000000 0.000000 0.000000 -0.000000 0.000000 0.000000 0.919565 1.901930 -0.164267 0.000000 0.000000 0.000000 0.000000 0.000000 0.000000 -0.023456 -0.047486 -32.200329 -0.000000 0.000000 0.000000 -0.000000 0.000000 0.000000 0.000000 0.000000 0.000000 -0.023456 -0.047486 -32.200329 -0.000000 0.000000 0.000000 -1.787276 5.224441 0.261647 0.000000 0.000000 0.000000
-35.660798 80.153131 340.216361 -0.012310 0.101198 32.166441 -0.043455 -0.092218 -32.166465 -0.000000 0.000000 0.000000 -0.000000 0.000000 0.000000 0.000000 0.000000 0.000000 -0.000000 0.000000 0.000000 -0.000000 0.000000 0.000000 0.427357 -1.477575 -0.282067 0.649222 -1.004613 -0.423813 0.000000 0.000000 0.000000 0.000000 0.000000 0.000000 -0.000000 0.000000 0.000000 -0.000000 0.000000 0.000000 -0.000000 0.000000 0.000000 1.507266 3.370398 -0.307424 0.000000 0.000000 0.000000 0.000000 0.000000 0.000000 -0.043455 -0.092218 -32.166465 -0.000000 0.000000 0.000000 0.049400 0.815159 -0.098224 0.000000 0.000000 0.000000 -0.043455 -0.092218 -32.166465 -0.000000 0.000000 0.000000 -3.279040 9.481545 0.599475 0.000000 0.000000 0.000000
-35.655540 80.159784 340.234669 -0.020563 0.145553 32.127110 -0.059991 -0.134200 -32.127154 -0.000000 0.000000 0.000000 -0.678789 0.575188 0.226562 0.000000 0.000000 0.000000 -0.000000 0.000000 0.000000 -0.000000 0.000000 0.000000 0.474771 -2.036195 -0.356303 0.850880 -1.502095 -0.603341 0.000000 0.000000 0.000000 0.000000 0.000000 0.000000 -0.000000 0.000000 0.000000 -0.000000 0.000000 0.000000 -0.000000 0.000000 0.000000 1.790245 4.460702 -0.416176 0.000000 0.000000 0.000000 0.000000 0.000000 0.000000 -0.059991 -0.134200 -32.127154 -0.000000 0.000000 0.000000 0.023206 1.094956 -0.093226 0.000000 0.000000 0.000000 -0.059991 -0.134200 -32.127154 -0.000000 0.000000 0.000000 -4.431545 12.676922 0.931161 0.000000 0.000000 0.000000
-35.648453 80.167291 340.256958 -0.030213 0.185750 32.082314 -0.073060 -0.173431 -32.082375 -0.000000 0.000000 0.000000 -0.795601 0.679948 0.268643 0.000000 0.000000 0.000000 -0.000000 0.000000 0.000000 -0.000000 0.000000 0.000000 0.415626 -2.476268 -0.389590 0.956573 -1.980856 -0.755992 0.000000 0.000000 0.000000 0.000000 0.000000 0.000000 -0.000000 0.000000 0.000000 0.607903 -0.533980 -0.096205 -0.608826 0.532929 0.101869 1.782124 5.210306 -0.482999 0.000000 0.000000 0.000000 0.000000 0.000000 0.000000 -0.073060 -0.173431 -32.082375 -0.000000 0.000000 0.000000 -0.036455 1.296624 -0.053076 0.000000 0.000000 0.000000 -0.073060 -0.173431 -32.082375 -0.000000 0.000000 0.000000 -5.213101 14.789254 1.189349 0.000000 0.000000 0.000000
-35.639537 80.175652 340.283227 -0.041259 0.221794 32.032042 -0.082661 -0.209910 -32.032113 -0.000000 0.000000 0.000000 -0.857126 0.741158 0.293309 0.000000 0.000000 0.000000 -0.000000 0.000000 0.000000 -0.000000 0.000000 0.000000 0.253231 -2.799901 -0.383904 0.956913 -2.429922 -0.878694 0.000000 0.000000 0.000000 0.000000 0.000000 0.000000 -0.000000 0.000000 0.000000 0.656363 -0.491369 -0.110013 -0.657329 0.490075 0.115639 1.484257 5.640537 -0.504109 0.000000 0.000000 0.000000 0.000000 0.000000 0.000000 -0.082661 -0.209910 -32.032113 -0.000000 0.000000 0.000000 -0.129965 1.423103 0.022334 0.000000 0.000000 0.000000 -0.082661 -0.209910 -32.032113 -0.000000 0.000000 0.000000 -5.605151 15.833162 1.328373 0.000000 0.000000 0.000000
-35.625382 80.188683 340.310775 -0.057061 0.261242 31.991761 -0.090011 -0.251796 -31.991829 -0.000000 0.000000 0.000000 -0.826329 0.729141 0.288360 0.000000 0.000000 0.000000 -0.000000 0.000000 0.000000 -0.000000 0.000000 0.000000 -0.175654 -4.133970 -0.429337 0.131133 -1.568206 -0.666611 0.000000 0.000000 0.000000 0.000000 0.000000 0.000000 -0.552591 0.592923 0.223789 1.562350 -1.153367 -0.391170 0.545933 -0.414036 0.363962 -0.601095 5.193690 -0.531389 0.000000 0.000000 0.000000 0.000000 0.000000 0.000000 -0.090011 -0.251796 -31.991829 -0.000000 0.000000 0.000000 -0.087014 1.535344 -0.023402 0.000000 0.000000 0.000000 -0.090011 -0.251796 -31.991829 -0.000000 0.000000 0.000000 -5.838318 16.409072 1.417743 0.000000 0.000000 0.000000
-35.613132 80.199495 340.346790 -0.074108 0.294803 31.941981 -0.093082 -0.289373 -31.942025 -0.000000 0.000000 0.000000 -0.739693 0.633072 0.249767 0.000000 0.000000 0.000000 -0.000000 0.000000 0.000000 -0.000000 0.000000 0.000000 -0.153989 -4.107246 -0.431539 0.184740 -2.977858 -0.948538 0.000000 0.000000 0.000000 0.000000 0.000000 0.000000 -0.876766 0.933880 0.355791 2.201311 -1.957801 -0.537036 0.237175 0.135341 0.368200 -2.275658 3.626971 -0.299615 0.000000 0.000000 0.000000 0.000000 0.000000 0.000000 -0.093082 -0.289373 -31.942025 -0.000000 0.000000 0.000000 -0.519123 1.851276 0.342971 0.000000 0.000000 0.000000 -0.093082 -0.289373 -31.942025 -0.000000 0.000000 0.000000 -5.618412 16.637026 1.259716 0.000000 0.000000 0.000000
-35.601688 80.206803 340.385440 -0.092593 0.308096 31.869266 -0.084035 -0.310539 -31.869244 -0.000000 0.000000 0.000000 -0.646699 0.612470 0.241203 0.000000 0.000000 0.000000 -0.000000 0.000000 0.000000 -0.000000 0.000000 0.000000 -1.766211 -2.110954 0.224422 1.531201 -5.601124 -1.740295 0.000000 0.000000 0.000000 0.000000 0.000000 0.000000 -0.556339 0.747453 0.272933 1.599993 -1.438414 -0.433410 -0.064564 1.515548 -0.151018 -3.388790 1.585080 0.176299 0.000000 0.000000 0.000000 0.000000 0.000000 0.000000 -0.084035 -0.310539 -31.869244 -0.000000 0.000000 0.000000 -0.777677 1.940466 0.568708 0.000000 0.000000 0.000000 -0.084035 -0.310539 -31.869244 -0.000000 0.000000 0.000000 -3.376049 11.369784 0.443260 0.000000 0.000000 0.000000
-35.610636 80.204907 340.421338 -0.137056 0.334572 31.778345 -0.059686 -0.356595 -31.778130 -0.000000 0.000000 0.000000 -0.548718 0.559761 0.219977 0.000000 0.000000 0.000000 -0.000000 0.000000 0.000000 0.224559 -1.746966 -0.059652 -2.179080 0.555840 0.520173 1.855232 -5.547467 -1.722006 0.000000 0.000000 0.000000 0.000000 0.000000 0.000000 -0.000000 0.000000 0.000000 0.764680 -0.449852 -0.136936 -2.039266 5.765007 -1.278008 -2.298444 -2.814986 1.137152 0.000000 0.000000 0.000000 0.000000 0.000000 0.000000 -0.059686 -0.356595 -31.778130 -0.000000 0.000000 0.000000 -1.309172 1.632776 1.063524 0.000000 0.000000 0.000000 -0.059686 -0.356595 -31.778130 -0.000000 0.000000 0.000000 -2.738957 9.289820 0.307447 0.000000 0.000000 0.000000
-35.614350 80.193487 340.459592 -0.162496 0.338415 31.662381 -0.039328 -0.373340 -31.662029 -0.000000 0.000000 0.000000 -0.000000 0.000000 0.000000 0.000000 0.000000 0.000000 -0.000000 0.000000 0.000000 -0.000000 0.000000 0.000000 0.195865 -2.146076 -0.295358 0.430956 -0.964850 -0.437278 0.000000 0.000000 0.000000 0.000000 0.000000 0.000000 1.436947 -0.837692 -0.343012 -2.718871 2.940431 0.540647 -4.804756 7.510991 -2.202529 2.030815 -3.326193 1.993544 0.000000 0.000000 0.000000 0.000000 0.000000 0.000000 -0.039328 -0.373340 -31.662029 -0.000000 0.000000 0.000000 -2.124236 1.117296 1.823534 0.000000 0.000000 0.000000 -0.039328 -0.373340 -31.662029 -0.000000 0.000000 0.000000 -3.343984 9.985290 0.580155 0.000000 0.000000 0.000000
-35.565917 80.205863 340.499137 -0.103291 0.315172 31.519677 -0.076718 -0.322671 -31.519609 -0.000000 0.000000 0.000000 -0.000000 0.000000 0.000000 0.000000 0.000000 0.000000 -0.301835 -1.560365 -0.031501 -3.561725 3.791513 1.125869 8.025533 3.021127 -1.409700 -2.879757 -4.386733 0.372441 0.000000 0.000000 0.000000 0.000000 0.000000 0.000000 3.416103 -2.202465 -0.836602 -8.320676 9.348098 1.992540 -9.980342 7.386969 -3.355978 6.475430 -3.454419 2.909727 0.000000 0.000000 0.000000 0.000000 0.000000 0.000000 -0.076718 -0.322671 -31.519609 -0.000000 0.000000 0.000000 -1.781921 -1.879517 1.709504 0.000000 0.000000 0.000000 -0.076718 -0.322671 -31.519609 -0.000000 0.000000 0.000000 -6.067888 15.430157 1.651200 0.000000 0.000000 0.000000
